<svg width="34" height="38" viewBox="0 0 34 38" fill="none" xmlns="http://www.w3.org/2000/svg">
<path fill-rule="evenodd" clip-rule="evenodd" d="M24.2064 20.9163H14.6631L18.8681 8.12305L23.6253 8.15117L20.863 16.5882L25.6061 16.591L24.2064 20.9163Z" fill="url(#paint0_linear_4894:5365)"/>
<path fill-rule="evenodd" clip-rule="evenodd" d="M4.72353 37.5235H0C0 37.5235 8.60351 11.0352 10.6126 4.85181C11.5525 1.95875 14.2471 0 17.2875 0H25.732C28.2786 0 30.4039 1.07604 31.7254 2.89435C33.0458 4.71276 33.4204 7.03947 32.6504 9.41309C31.8794 11.7867 31.1511 14.0273 30.4844 16.0803C29.5842 18.8523 27.0903 20.7624 24.2069 20.9177C24.2069 20.9177 24.192 20.9128 28.2319 8.47391C28.5886 7.37621 28.4584 6.30176 27.898 5.53116C27.3387 4.76066 26.3947 4.30464 25.1458 4.30464H17.8996C16.4767 4.30464 15.2158 5.22125 14.7757 6.57509L4.72353 37.5235Z" fill="#F0145A"/>
<defs>
<linearGradient id="paint0_linear_4894:5365" x1="14.6624" y1="18.4659" x2="25.28" y2="24.0135" gradientUnits="userSpaceOnUse">
<stop stop-color="#F0145A"/>
<stop offset="1" stop-color="#693264"/>
</linearGradient>
</defs>
</svg>
